<svg xmlns="http://www.w3.org/2000/svg" viewBox="0 0 64 64">
  <defs><linearGradient id="g" x1="0" x2="1" y1="0" y2="1"><stop stop-color="#ef4444"/><stop offset=".25" stop-color="#f59e0b"/><stop offset=".5" stop-color="#22c55e"/><stop offset=".75" stop-color="#38bdf8"/><stop offset="1" stop-color="#6366f1"/></linearGradient></defs>
  <rect width="64" height="64" rx="18" fill="url(#g)"/>
  <circle cx="32" cy="32" r="22" fill="white"/>
  <path d="M38 20c-2.2-1.3-5-2.1-8-2.1-6 0-10 3-10 7.4 0 4.8 4.5 6.1 9.4 7.1 3.7.7 5.2 1.3 5.2 3 0 1.8-1.8 2.8-5 2.8-3.1 0-6.2-1.1-8.7-3l-3.2 5.1c3.1 2.5 7.3 3.8 11.7 3.8 6.5 0 11-2.9 11-8 0-4.7-3.7-6.4-9.4-7.5-4-.8-5.3-1.3-5.3-2.8 0-1.4 1.5-2.4 4.2-2.4 2.6 0 5.1.9 7.2 2.3L38 20Z" fill="#111827"/>
</svg>