<svg xmlns="http://www.w3.org/2000/svg" viewBox="0 0 1080 320" role="img" aria-label="Sortick">
  <defs>
    <filter id="shadow" x="-20%" y="-20%" width="140%" height="150%">
      <feDropShadow dx="0" dy="10" stdDeviation="10" flood-color="#0c0828" flood-opacity=".14"/>
    </filter>
  </defs>

  <g transform="translate(20 28) scale(.54)">
    <rect x="52" y="64" width="408" height="360" rx="88" fill="#fffdf6" filter="url(#shadow)"/>
    <g transform="translate(256 244)">
      <circle r="132" fill="#3f1b9b"/>
      <path d="M -132 0 A 132 132 0 0 1 -66 -114" fill="none" stroke="#00c2a8" stroke-width="28"/>
      <path d="M -66 -114 A 132 132 0 0 1 58 -119" fill="none" stroke="#ffca3a" stroke-width="28"/>
      <path d="M 58 -119 A 132 132 0 0 1 132 0" fill="none" stroke="#ff8a00" stroke-width="28"/>
      <path d="M 132 0 A 132 132 0 0 1 0 132" fill="none" stroke="#2f6fff" stroke-width="28"/>
      <path d="M 0 132 A 132 132 0 0 1 -114 66" fill="none" stroke="#ff4b6e" stroke-width="28"/>
      <path d="M -114 66 A 132 132 0 0 1 -132 0" fill="none" stroke="#f72585" stroke-width="28"/>
      <text x="0" y="60" text-anchor="middle" font-family="Arial Rounded MT Bold, Nunito, Arial, sans-serif" font-size="206" font-weight="900" fill="#ffffff">S</text>
      <rect x="-84" y="-89" width="25" height="25" rx="6" fill="#00c2a8" transform="rotate(23 -72 -76)"/>
      <path d="M -95 2 L -77 12 L -60 2 L -66 22 L -54 39 L -76 38 L -91 52 L -95 30 L -113 20 L -94 11 Z" fill="#ff4b6e"/>
      <circle cx="72" cy="-61" r="19" fill="#ffca3a"/>
      <rect x="65" y="34" width="24" height="57" rx="12" fill="#56ccf2" transform="rotate(42 77 62)"/>
      <circle cx="28" cy="100" r="12" fill="#00c2a8"/>
    </g>
  </g>

  <text x="330" y="205" font-family="Arial Rounded MT Bold, Nunito, Arial, sans-serif" font-size="142" font-weight="900" fill="#24105f">Sortick</text>
  <circle cx="758" cy="89" r="18" fill="#ff4b6e"/>
</svg>